<svg width="16" height="16" fill="none" xmlns="http://www.w3.org/2000/svg"><path d="M12.594 4.484c-.05-.186-.15-.385-.226-.56C11.473 1.772 9.515 1 7.935 1 5.819 1 3.489 2.419 3.178 5.343v.597c0 .025.008.25.02.361.175 1.394 1.275 2.875 2.096 4.269.884 1.493 1.8 2.962 2.709 4.43.56-.958 1.118-1.929 1.665-2.862.15-.274.323-.548.472-.81.1-.173.29-.347.377-.51.883-1.617 2.305-3.247 2.305-4.853v-.66c0-.173-.215-.783-.228-.82zm-4.62 3c-.622 0-1.303-.311-1.64-1.17-.05-.137-.045-.41-.045-.436v-.386c0-1.095.93-1.592 1.738-1.592.996 0 1.766.796 1.766 1.792 0 .995-.824 1.792-1.82 1.792z" fill="#B7B09C"/></svg>