<?xml version="1.0" encoding="utf-8"?>
<!-- Generator: Adobe Illustrator 16.0.4, SVG Export Plug-In . SVG Version: 6.00 Build 0)  -->
<!DOCTYPE svg PUBLIC "-//W3C//DTD SVG 1.1//EN" "http://www.w3.org/Graphics/SVG/1.1/DTD/svg11.dtd">
<svg version="1.1" id="Layer_1" xmlns="http://www.w3.org/2000/svg" xmlns:xlink="http://www.w3.org/1999/xlink" x="0px" y="0px"
	 width="148px" height="77.6px" viewBox="0 0 148 77.6" enable-background="new 0 0 148 77.6" xml:space="preserve">
<g>
	<g>
		<path fill="#7CB5CA" d="M78.327,12.081c-0.447,4.16-0.531,8.568-0.531,13.227c0,1.281,0,2.641,0,4
			c0,19.619,0.158,32.473,0.525,38.611c-1.637-0.059-3.301-0.096-4.996-0.096c-1.697,0-3.367,0.037-5.01,0.096
			c0.164-2.35,0.229-3.814,0.229-4.361c0-8.963,0.205-20.086,0.205-33.289c0-2.402,0-4.725,0-7.045c0-3.863-0.08-7.619-0.436-11.143
			l-0.021,0.01c-7.143,0.076-13.66,0.326-19.562,0.912c0.213-1.445,0.355-2.885,0.355-4.322c0-1.443-0.143-2.885-0.355-4.322
			c9.428,0.934,17.18,0.865,24.633,0.865c9.15,0,17.285-0.217,24.562-0.865c-0.291,1.438-0.363,2.879-0.363,4.322
			c0,1.438,0.072,2.877,0.363,4.322c-5.93-0.531-12.434-0.816-19.59-0.908L78.327,12.081z"/>
		<g>
			<path fill="#7CB5CA" d="M11.319,11.126c-4.477,4.008-7.045,9.43-7.045,14.873c0,9.832,8.033,18.145,17.541,18.145
				c7.592,0,13.535-5.42,13.535-12.34c0-5.729-4.354-10.939-9.137-10.939c-3.162,0-5.734,2.393-5.734,5.338
				c0,3.039,2.293,5.332,5.336,5.332c1.93,0,3.43-0.867,4.361-2.449c0.359,0.836,0.504,1.691,0.504,2.719
				c0,4.295-3.629,7.666-8.268,7.666c-7.441,0-13.27-5.916-13.27-13.471c0-4.355,1.877-8.469,5.291-11.594
				c3.441-3.146,7.979-4.881,12.779-4.881c7.404,0,13.748,3.16,18.354,9.137c4.66,6.049,7.123,14.398,7.123,24.143
				c0,0.752,0,2.738-0.193,4.674v0.02l-0.004,0.031c-0.078,1.34-0.197,2.439-0.387,3.676c0,0.016-0.252,1.822-0.252,1.822
				c-0.297,2.189-0.607,4.445-1.133,6.908c-0.709,3.301-1.615,6.176-3.139,9.928l-0.961,2.379l2.5-0.58
				c2.674-0.617,5.574-1.131,8.619-1.527l0.941-0.123l0.193-0.924c1.32-6.279,1.641-9.209,2.096-14.871
				c0.131-1.344,0.162-4.076,0.178-5.709l0.01-0.898c0-24.373-14.334-42.75-33.342-42.75C21.692,4.858,15.835,7.083,11.319,11.126z"
				/>
		</g>
		<g>
			<path fill="#7CB5CA" d="M85.491,47.608c0,0.02,0.008,0.904,0.008,0.904c0.02,1.635,0.051,4.359,0.178,5.727
				c0.459,5.641,0.779,8.568,2.1,14.848l0.195,0.924l0.938,0.123c3.043,0.396,5.943,0.91,8.619,1.527l2.498,0.58l-0.963-2.379
				c-1.518-3.756-2.426-6.633-3.133-9.928c-0.531-2.469-0.838-4.732-1.137-6.928l-0.246-1.787c-0.193-1.248-0.311-2.35-0.391-3.691
				l-0.002-0.031l-0.004-0.02c-0.193-1.936-0.193-3.922-0.193-4.674c0-9.744,2.467-18.094,7.127-24.143
				c4.604-5.977,10.951-9.137,18.35-9.137c4.805,0,9.346,1.734,12.779,4.881c3.414,3.125,5.295,7.238,5.295,11.594
				c0,7.555-5.828,13.471-13.271,13.471c-4.637,0-8.27-3.371-8.27-7.666c0-1.027,0.154-1.883,0.504-2.719
				c0.934,1.582,2.436,2.449,4.365,2.449c3.041,0,5.33-2.293,5.33-5.332c0-2.945-2.568-5.338-5.732-5.338
				c-4.781,0-9.135,5.211-9.135,10.939c0,6.92,5.949,12.34,13.539,12.34c9.508,0,17.537-8.312,17.537-18.145
				c0-5.443-2.568-10.865-7.045-14.873c-4.518-4.043-10.373-6.268-16.496-6.268C99.823,4.858,85.491,23.235,85.491,47.608z"/>
		</g>
	</g>
</g>
</svg>
